<?xml version="1.0" encoding="UTF-8" standalone="no" ?>
<!DOCTYPE svg PUBLIC "-//W3C//DTD SVG 1.1//EN" "http://www.w3.org/Graphics/SVG/1.1/DTD/svg11.dtd">
<svg xmlns="http://www.w3.org/2000/svg" xmlns:xlink="http://www.w3.org/1999/xlink" version="1.1" width="1080" height="1080" viewBox="0 0 1080 1080" xml:space="preserve">
<desc>Created with Fabric.js 5.2.4</desc>
<defs>
</defs>
<rect x="0" y="0" width="100%" height="100%" fill="transparent"></rect>
<g transform="matrix(1 0 0 1 540 540)" id="3136ee7c-6e3b-44ce-9d9a-b9e0e38a6df4"  >
<rect style="stroke: none; stroke-width: 1; stroke-dasharray: none; stroke-linecap: butt; stroke-dashoffset: 0; stroke-linejoin: miter; stroke-miterlimit: 4; fill: rgb(255,255,255); fill-rule: nonzero; opacity: 1; visibility: hidden;" vector-effect="non-scaling-stroke"  x="-540" y="-540" rx="0" ry="0" width="1080" height="1080" />
</g>
<g transform="matrix(1 0 0 1 540 540)" id="e20b8253-89c0-4a0d-9725-e4e5c42e65af"  >
</g>
<g transform="matrix(0 0 0 0 0 0)"  >
<g style=""   >
</g>
</g>
<g transform="matrix(2.27 0 0 2.27 540 934.82)" style="" id="601774fb-4708-440c-bff4-6af282c96aa0"  >
		<text xml:space="preserve" font-family="Alegreya" font-size="80" font-style="normal" font-weight="700" style="stroke: none; stroke-width: 1; stroke-dasharray: none; stroke-linecap: butt; stroke-dashoffset: 0; stroke-linejoin: miter; stroke-miterlimit: 4; fill: rgb(143,143,143); fill-rule: nonzero; opacity: 1; white-space: pre;" ><tspan x="-220.36" y="25.13" >Construction</tspan></text>
</g>
<g transform="matrix(0 0 0 0 0 0)"  >
<g style=""   >
</g>
</g>
<g transform="matrix(0 0 0 0 0 0)"  >
<g style=""   >
</g>
</g>
<g transform="matrix(0 0 0 0 0 0)"  >
<g style=""   >
</g>
</g>
<g transform="matrix(0 0 0 0 0 0)"  >
<g style=""   >
</g>
</g>
<g transform="matrix(0 0 0 0 0 0)"  >
<g style=""   >
</g>
</g>
<g transform="matrix(0 0 0 0 0 0)"  >
<g style=""   >
</g>
</g>
<g transform="matrix(NaN NaN NaN NaN 0 0)"  >
<g style=""   >
</g>
</g>
<g transform="matrix(NaN NaN NaN NaN 0 0)"  >
<g style=""   >
</g>
</g>
<g transform="matrix(NaN NaN NaN NaN 0 0)"  >
<g style=""   >
</g>
</g>
<g transform="matrix(NaN NaN NaN NaN 0 0)"  >
<g style=""   >
</g>
</g>
<g transform="matrix(NaN NaN NaN NaN 0 0)"  >
<g style=""   >
</g>
</g>
<g transform="matrix(NaN NaN NaN NaN 0 0)"  >
<g style=""   >
</g>
</g>
<g transform="matrix(NaN NaN NaN NaN 0 0)"  >
<g style=""   >
</g>
</g>
<g transform="matrix(NaN NaN NaN NaN 0 0)"  >
<g style=""   >
</g>
</g>
<g transform="matrix(NaN NaN NaN NaN 0 0)"  >
<g style=""   >
</g>
</g>
<g transform="matrix(NaN NaN NaN NaN 0 0)"  >
<g style=""   >
</g>
</g>
<g transform="matrix(NaN NaN NaN NaN 0 0)"  >
<g style=""   >
</g>
</g>
<g transform="matrix(NaN NaN NaN NaN 0 0)"  >
<g style=""   >
</g>
</g>
<g transform="matrix(NaN NaN NaN NaN 0 0)"  >
<g style=""   >
</g>
</g>
<g transform="matrix(NaN NaN NaN NaN 0 0)"  >
<g style=""   >
</g>
</g>
<g transform="matrix(NaN NaN NaN NaN 0 0)"  >
<g style=""   >
</g>
</g>
<g transform="matrix(NaN NaN NaN NaN 0 0)"  >
<g style=""   >
</g>
</g>
<g transform="matrix(1 0 0 1 540 540)" id="1db2f160-1e52-4b53-992b-457c4f742001"  >
<path style="stroke: rgb(0,0,0); stroke-width: 0; stroke-dasharray: none; stroke-linecap: butt; stroke-dashoffset: 0; stroke-linejoin: miter; stroke-miterlimit: 4; fill: rgb(143,143,143); fill-rule: nonzero; opacity: 1;" vector-effect="non-scaling-stroke"  transform=" translate(-287.97, -264)" d="M 304 64 C 304 90.5 282.5 112 256 112 C 229.5 112 208 90.5 208 64 C 208 37.5 229.5 16 256 16 C 282.5 16 304 37.5 304 64 z M 9.8 214.8 C 14.9 202.60000000000002 28.900000000000002 196.8 41.2 201.9 L 60.7 210 L 83.6 171.9 C 99.9 144.6 129.3 128 161 128 C 212.4 128 258 160.9 274.3 209.7 L 308.90000000000003 313.4 L 388.20000000000005 346.5 L 422.40000000000003 300.9 C 428.8 292.4 439.00000000000006 287.59999999999997 449.6 288.09999999999997 C 460.2 288.59999999999997 469.90000000000003 294.49999999999994 475.40000000000003 303.59999999999997 L 571.4000000000001 463.59999999999997 C 577.3000000000001 473.49999999999994 577.5000000000001 485.79999999999995 571.8000000000001 495.79999999999995 C 566.1 505.79999999999995 555.5000000000001 511.99999999999994 544.0000000000001 511.99999999999994 L 288 511.99999999999994 C 276.9 511.99999999999994 266.6 506.29999999999995 260.8 496.79999999999995 C 255 487.29999999999995 254.4 475.59999999999997 259.40000000000003 465.69999999999993 L 275.40000000000003 433.69999999999993 C 280.8 422.8999999999999 291.90000000000003 415.99999999999994 304.00000000000006 415.99999999999994 L 336.00000000000006 415.99999999999994 L 358.50000000000006 385.99999999999994 L 22.8 246.2 C 10.600000000000001 241.1 4.800000000000001 227.1 9.9 214.79999999999998 z M 92.6 306.6 L 204.6 354.6 C 216.4 359.6 224 371.20000000000005 224 384 L 224 480 C 224 497.7 209.7 512 192 512 C 174.3 512 160 497.7 160 480 L 160 405.1 L 99.4 379.1 L 62.400000000000006 490.1 C 56.800000000000004 506.90000000000003 38.7 515.9 21.900000000000006 510.3 C 5.1000000000000085 504.70000000000005 -3.9 486.6 1.6 469.9 L 49.6 325.9 L 60.6 292.9 L 92.6 306.59999999999997 z" stroke-linecap="round" />
</g>
<g transform="matrix(NaN NaN NaN NaN 0 0)"  >
<g style=""   >
</g>
</g>
<g transform="matrix(NaN NaN NaN NaN 0 0)"  >
<g style=""   >
</g>
</g>
</svg>