<?xml version="1.0" encoding="UTF-8" standalone="no" ?>
<!DOCTYPE svg PUBLIC "-//W3C//DTD SVG 1.1//EN" "http://www.w3.org/Graphics/SVG/1.1/DTD/svg11.dtd">
<svg xmlns="http://www.w3.org/2000/svg" xmlns:xlink="http://www.w3.org/1999/xlink" version="1.1" width="1080" height="1080" viewBox="0 0 1080 1080" xml:space="preserve">
<desc>Created with Fabric.js 5.2.4</desc>
<defs>
</defs>
<rect x="0" y="0" width="100%" height="100%" fill="transparent"></rect>
<g transform="matrix(1 0 0 1 540 540)" id="3136ee7c-6e3b-44ce-9d9a-b9e0e38a6df4"  >
<rect style="stroke: none; stroke-width: 1; stroke-dasharray: none; stroke-linecap: butt; stroke-dashoffset: 0; stroke-linejoin: miter; stroke-miterlimit: 4; fill: rgb(255,255,255); fill-rule: nonzero; opacity: 1; visibility: hidden;" vector-effect="non-scaling-stroke"  x="-540" y="-540" rx="0" ry="0" width="1080" height="1080" />
</g>
<g transform="matrix(1 0 0 1 540 540)" id="e20b8253-89c0-4a0d-9725-e4e5c42e65af"  >
</g>
<g transform="matrix(0 0 0 0 0 0)"  >
<g style=""   >
</g>
</g>
<g transform="matrix(2.27 0 0 2.27 539.5 934.82)" style="" id="601774fb-4708-440c-bff4-6af282c96aa0"  >
		<text xml:space="preserve" font-family="Alegreya" font-size="80" font-style="normal" font-weight="700" style="stroke: none; stroke-width: 1; stroke-dasharray: none; stroke-linecap: butt; stroke-dashoffset: 0; stroke-linejoin: miter; stroke-miterlimit: 4; fill: rgb(143,143,143); fill-rule: nonzero; opacity: 1; white-space: pre;" ><tspan x="-94.64" y="25.13" >Parks</tspan></text>
</g>
<g transform="matrix(0 0 0 0 0 0)"  >
<g style=""   >
</g>
</g>
<g transform="matrix(0 0 0 0 0 0)"  >
<g style=""   >
</g>
</g>
<g transform="matrix(0 0 0 0 0 0)"  >
<g style=""   >
</g>
</g>
<g transform="matrix(0 0 0 0 0 0)"  >
<g style=""   >
</g>
</g>
<g transform="matrix(0 0 0 0 0 0)"  >
<g style=""   >
</g>
</g>
<g transform="matrix(1 0 0 1 540 540)"  >
<path style="stroke: rgb(0,0,0); stroke-width: 0; stroke-dasharray: none; stroke-linecap: butt; stroke-dashoffset: 0; stroke-linejoin: miter; stroke-miterlimit: 4; fill: rgb(143,143,143); fill-rule: nonzero; opacity: 1;" vector-effect="non-scaling-stroke"  transform=" translate(-320, -256)" d="M 288 48 C 288 21.5 309.5 0 336 0 L 432 0 C 458.5 0 480 21.5 480 48 L 480 192 L 520 192 L 520 120 C 520 106.7 530.7 96 544 96 C 557.3 96 568 106.7 568 120 L 568 192 L 592 192 C 618.5 192 640 213.5 640 240 L 640 464 C 640 490.5 618.5 512 592 512 L 432 512 L 336 512 C 309.5 512 288 490.5 288 464 L 288 48 z M 352 80 L 352 112 C 352 120.8 359.2 128 368 128 L 400 128 C 408.8 128 416 120.8 416 112 L 416 80 C 416 71.2 408.8 64 400 64 L 368 64 C 359.2 64 352 71.2 352 80 z M 368 160 C 359.2 160 352 167.2 352 176 L 352 208 C 352 216.8 359.2 224 368 224 L 400 224 C 408.8 224 416 216.8 416 208 L 416 176 C 416 167.2 408.8 160 400 160 L 368 160 z M 352 272 L 352 304 C 352 312.8 359.2 320 368 320 L 400 320 C 408.8 320 416 312.8 416 304 L 416 272 C 416 263.2 408.8 256 400 256 L 368 256 C 359.2 256 352 263.2 352 272 z M 528 256 C 519.2 256 512 263.2 512 272 L 512 304 C 512 312.8 519.2 320 528 320 L 560 320 C 568.8 320 576 312.8 576 304 L 576 272 C 576 263.2 568.8 256 560 256 L 528 256 z M 512 368 L 512 400 C 512 408.8 519.2 416 528 416 L 560 416 C 568.8 416 576 408.8 576 400 L 576 368 C 576 359.2 568.8 352 560 352 L 528 352 C 519.2 352 512 359.2 512 368 z M 224 160 C 224 166 223 171 222 176 C 242 190 256 214 256 240 C 256 285 220 320 176 320 L 160 320 L 160 480 C 160 498 145 512 128 512 C 110 512 96 498 96 480 L 96 320 L 80 320 C 35 320 0 285 0 240 C 0 214 13 190 33 176 C 32 171 32 166 32 160 C 32 107 74 64 128 64 C 181 64 224 107 224 160 z" stroke-linecap="round" />
</g>
<g transform="matrix(0 0 0 0 0 0)"  >
<g style=""   >
</g>
</g>
<g transform="matrix(NaN NaN NaN NaN 0 0)"  >
<g style=""   >
</g>
</g>
<g transform="matrix(NaN NaN NaN NaN 0 0)"  >
<g style=""   >
</g>
</g>
<g transform="matrix(NaN NaN NaN NaN 0 0)"  >
<g style=""   >
</g>
</g>
<g transform="matrix(NaN NaN NaN NaN 0 0)"  >
<g style=""   >
</g>
</g>
</svg>