<?xml version="1.0" encoding="UTF-8" standalone="no" ?>
<!DOCTYPE svg PUBLIC "-//W3C//DTD SVG 1.1//EN" "http://www.w3.org/Graphics/SVG/1.1/DTD/svg11.dtd">
<svg xmlns="http://www.w3.org/2000/svg" xmlns:xlink="http://www.w3.org/1999/xlink" version="1.1" width="1080" height="1080" viewBox="0 0 1080 1080" xml:space="preserve">
<desc>Created with Fabric.js 5.2.4</desc>
<defs>
</defs>
<rect x="0" y="0" width="100%" height="100%" fill="transparent"></rect>
<g transform="matrix(1 0 0 1 540 540)" id="3136ee7c-6e3b-44ce-9d9a-b9e0e38a6df4"  >
<rect style="stroke: none; stroke-width: 1; stroke-dasharray: none; stroke-linecap: butt; stroke-dashoffset: 0; stroke-linejoin: miter; stroke-miterlimit: 4; fill: rgb(255,255,255); fill-rule: nonzero; opacity: 1; visibility: hidden;" vector-effect="non-scaling-stroke"  x="-540" y="-540" rx="0" ry="0" width="1080" height="1080" />
</g>
<g transform="matrix(1 0 0 1 540 540)" id="e20b8253-89c0-4a0d-9725-e4e5c42e65af"  >
</g>
<g transform="matrix(0 0 0 0 0 0)"  >
<g style=""   >
</g>
</g>
<g transform="matrix(1 0 0 1 540 540)"  >
<path style="stroke: rgb(39,39,39); stroke-width: 0; stroke-dasharray: none; stroke-linecap: butt; stroke-dashoffset: 0; stroke-linejoin: miter; stroke-miterlimit: 4; fill: rgb(39,39,39); fill-rule: nonzero; opacity: 1;" vector-effect="non-scaling-stroke"  transform=" translate(-224, -256)" d="M 210.6 5.9 L 62 169.4 C 58.1 173.6 56 179.20000000000002 56 184.9 C 56 197.7 66.3 208 79.1 208 L 104 208 L 30.6 281.4 C 26.400000000000002 285.59999999999997 24 291.4 24 297.4 C 24 309.9 34.1 320 46.6 320 L 80 320 L 5.4 409.5 C 1.9 413.7 0 419 0 424.5 C 0 437.5 10.5 448 23.5 448 L 192 448 L 192 480 C 192 497.7 206.3 512 224 512 C 241.7 512 256 497.7 256 480 L 256 448 L 424.5 448 C 437.5 448 448 437.5 448 424.5 C 448 419 446.1 413.7 442.6 409.5 L 368 320 L 401.4 320 C 413.9 320 424 309.9 424 297.4 C 424 291.4 421.6 285.59999999999997 417.4 281.4 L 344 208 L 368.9 208 C 381.59999999999997 208 392 197.7 392 184.9 C 392 179.20000000000002 389.9 173.6 386 169.4 L 237.4 5.9 C 234 2.1 229.1 0 224 0 C 218.9 0 214 2.1 210.6 5.9 z" stroke-linecap="round" />
</g>
<g transform="matrix(2.27 0 0 2.27 539.5 934.82)" style="" id="601774fb-4708-440c-bff4-6af282c96aa0"  >
		<text xml:space="preserve" font-family="Alegreya" font-size="80" font-style="normal" font-weight="700" style="stroke: none; stroke-width: 1; stroke-dasharray: none; stroke-linecap: butt; stroke-dashoffset: 0; stroke-linejoin: miter; stroke-miterlimit: 4; fill: rgb(39,39,39); fill-rule: nonzero; opacity: 1; white-space: pre;" ><tspan x="-91.52" y="25.13" >Trees</tspan></text>
</g>
<g transform="matrix(0 0 0 0 0 0)"  >
<g style=""   >
</g>
</g>
<g transform="matrix(0 0 0 0 0 0)"  >
<g style=""   >
</g>
</g>
<g transform="matrix(0 0 0 0 0 0)"  >
<g style=""   >
</g>
</g>
<g transform="matrix(NaN NaN NaN NaN 0 0)"  >
<g style=""   >
</g>
</g>
<g transform="matrix(NaN NaN NaN NaN 0 0)"  >
<g style=""   >
</g>
</g>
</svg>